<?xml version="1.0" encoding="UTF-8"?>
<svg xmlns="http://www.w3.org/2000/svg" version="1.1" viewBox="0 0 396.16 673">
  <defs>
    <style>
      .cls-1 {
        fill: #09f5fb;
      }
    </style>
  </defs>
  <!-- Generator: Adobe Illustrator 28.6.0, SVG Export Plug-In . SVG Version: 1.2.0 Build 709)  -->
  <g>
    <g id="Layer_1">
      <path class="cls-1" d="M205.33,418.35c.43-.57.37-1.07-.19-1.51-22.54-42.68-45.09-85.37-69.29-131.19-10.51,40.72-20,77.5-29.84,115.62h59.89c-4.53,8.1-8.46,15.12-12.39,22.13-6.46,10.52-12.91,21.04-19.37,31.56-4.65,7.58-9.3,15.17-13.95,22.75-.71.19-.97.65-.78,1.36-4.2,6.75-8.4,13.5-12.6,20.24-.6.77-1.2,1.55-1.79,2.32-.65.94-1.3,1.88-1.95,2.82-.46.67-.61,1.41-.44,2.2-5.55,9.01-11.1,18.03-16.65,27.04-4.28,7.03-8.56,14.07-12.84,21.1-22.98,37.14-45.96,74.28-73.14,118.21,23.38-78.23,44.37-148.42,65.73-219.9H4.8c25.71-99.4,51.12-197.67,76.7-296.55h69.2c37.98,71.84,76.32,144.37,116.35,220.09,10.17-39.19,19.51-75.21,29.21-112.6h-63.16C283.81,176.43,333.55,90.49,385.93,0c-18.27,73.86-35.25,142.52-52.5,212.25h62.73c-10.24,42.26-20.17,83.25-30.1,124.24-.88,4.87-1.75,9.74-2.63,14.61-1.97,7.99-3.94,15.97-5.92,23.96-.89,3.25-1.79,6.49-2.68,9.74-1.97,8.24-3.94,16.49-5.9,24.73-.23,1.59-.46,3.17-.69,4.76-8.45,33.53-16.9,67.06-25.45,101.01h-61.59c-8.01-12.94-16.09-25.98-24.16-39.02l.46-.49-.41-.53c-6.56-11.54-13.13-23.08-19.69-34.63-1.64-3.19-3.28-6.38-4.92-9.57-2.38-4.24-4.77-8.47-7.15-12.71Z"/>
    </g>
  </g>
</svg>