<?xml version="1.0" encoding="UTF-8"?>
<svg xmlns="http://www.w3.org/2000/svg" version="1.1" viewBox="0 0 2410.21 907.24">
  <defs>
    <style>
      .cls-1 {
        fill: #1feff4;
      }
    </style>
  </defs>
  <!-- Generator: Adobe Illustrator 28.6.0, SVG Export Plug-In . SVG Version: 1.2.0 Build 709)  -->
  <g>
    <g id="Layer_1">
      <path class="cls-1" d="M275.79,561.91c.58-.76.49-1.44-.25-2.03-30.28-57.33-60.56-114.66-93.07-176.21-14.12,54.69-26.87,104.1-40.08,155.3h80.45c-6.09,10.88-11.36,20.3-16.64,29.73-8.67,14.13-17.34,28.26-26.01,42.39-6.25,10.18-12.49,20.37-18.74,30.55-.95.26-1.31.87-1.05,1.82-5.64,9.06-11.28,18.13-16.92,27.19-.8,1.04-1.61,2.08-2.41,3.12-.87,1.26-1.74,2.53-2.61,3.79-.62.9-.82,1.89-.6,2.96-7.45,12.11-14.91,24.21-22.36,36.32-5.75,9.45-11.5,18.89-17.25,28.34-30.87,49.89-61.73,99.77-98.24,158.77,31.41-105.07,59.59-199.36,88.29-295.36H6.45c34.53-133.52,68.67-265.5,103.02-398.31h92.95c51.01,96.5,102.51,193.91,156.27,295.62,13.66-52.63,26.21-101.02,39.24-151.24h-84.83C381.21,236.97,448.01,121.54,518.36,0c-24.54,99.21-47.35,191.43-70.51,285.09h84.26c-13.75,56.76-27.09,111.82-40.43,166.88-1.18,6.54-2.36,13.08-3.53,19.62-2.65,10.73-5.3,21.45-7.95,32.18-1.2,4.36-2.4,8.72-3.6,13.08-2.64,11.07-5.29,22.14-7.93,33.22-.31,2.13-.62,4.26-.93,6.39-11.35,45.04-22.69,90.08-34.18,135.67h-82.72c-10.76-17.38-21.61-34.89-32.45-52.41l.62-.66-.55-.72c-8.82-15.5-17.63-31.01-26.45-46.51-2.2-4.28-4.41-8.57-6.61-12.85-3.2-5.69-6.4-11.38-9.6-17.07Z"/>
    </g>
  </g>
</svg>